#N canvas 253 54 694 525 10;
#X obj 13 392 sendOSC;
#X obj 92 416 print;
#X obj 92 392 spigot;
#X obj 143 392 tgl 15 0 empty empty empty 17 7 0 10 -262144 -1 -1 0
1;
#X obj 13 11 loadbang;
#X msg 13 36 connect localhost 2525;
#X msg 30 232 send /jadeo/seek \$1;
#X obj 92 306 spigot;
#X obj 143 306 tgl 15 0 empty empty empty 17 7 0 10 -262144 -1 -1 1
1;
#X msg 257 189 send /jadeo/load /home/rgareus/data/marzipan/kino/marzipan_7-m.avi
;
#X msg 257 162 send /jadeo/load /home/rgareus/ext/video/oceanwaves-xj.avi
;
#X floatatom 143 110 5 0 0 2 Frame - -;
#X obj 30 119 tgl 15 0 empty empty empty 17 7 0 10 -262144 -1 -1 0
1;
#X obj 75 168 + 1;
#X obj 30 169 int;
#X obj 30 143 metro 40;
#X text 168 306 enable;
#X text 166 392 debug;
#X text 52 118 play;
#X floatatom 30 202 5 0 0 0 - - -;
#X obj 163 288 loadbang;
#X connect 2 0 1 0;
#X connect 3 0 2 1;
#X connect 4 0 5 0;
#X connect 5 0 0 0;
#X connect 6 0 7 0;
#X connect 7 0 0 0;
#X connect 7 0 2 0;
#X connect 8 0 7 1;
#X connect 9 0 7 0;
#X connect 10 0 7 0;
#X connect 11 0 14 0;
#X connect 12 0 15 0;
#X connect 13 0 14 1;
#X connect 14 0 13 0;
#X connect 14 0 19 0;
#X connect 15 0 14 0;
#X connect 19 0 6 0;
#X connect 20 0 8 0;
